<svg width="400" height="300" xmlns="http://www.w3.org/2000/svg">
  <rect width="400" height="300" fill="#F0FFF0"/>
  <rect x="50" y="80" width="300" height="160" fill="#B8E986" rx="12"/>
  <rect x="70" y="100" width="260" height="120" fill="#fff" rx="6"/>
  <rect x="90" y="120" width="35" height="25" fill="#B8E986" rx="2"/>
  <rect x="140" y="120" width="35" height="25" fill="#B8E986" rx="2"/>
  <rect x="190" y="120" width="35" height="25" fill="#B8E986" rx="2"/>
  <rect x="240" y="120" width="35" height="25" fill="#B8E986" rx="2"/>
  <rect x="285" y="120" width="35" height="25" fill="#B8E986" rx="2"/>
  <rect x="90" y="160" width="35" height="25" fill="#B8E986" rx="2"/>
  <rect x="140" y="160" width="35" height="25" fill="#B8E986" rx="2"/>
  <rect x="190" y="160" width="35" height="25" fill="#B8E986" rx="2"/>
  <rect x="240" y="160" width="35" height="25" fill="#B8E986" rx="2"/>
  <rect x="285" y="160" width="35" height="25" fill="#B8E986" rx="2"/>
  <rect x="185" y="190" width="30" height="30" fill="#8B4513"/>
  <text x="200" y="60" text-anchor="middle" font-family="Arial" font-size="18" fill="#B8E986">🏫</text>
  <text x="200" y="280" text-anchor="middle" font-family="Arial" font-size="16" font-weight="bold" fill="#333">Student Haven</text>
</svg>